<?xml version="1.0" encoding="UTF-8"?>
<svg id="Layer_2" data-name="Layer 2" xmlns="http://www.w3.org/2000/svg" viewBox="0 0 72.17 66">
  <defs>
    <style>
      .cls-1 {
        fill: #fff;
        opacity: 0;
      }

      .cls-2 {
        fill: #2b4b67;
      }
    </style>
  </defs>
  <g id="Layer_1-2" data-name="Layer 1">
    <g>
      <rect class="cls-1" x=".17" width="72" height="66"/>
      <g>
        <path id="Path_7366" data-name="Path 7366" class="cls-2" d="M71,48.95H1c-.55,0-1-.45-1-1s.45-1,1-1H71c.55,0,1,.45,1,1s-.45,1-1,1Z"/>
        <path id="Path_7367" data-name="Path 7367" class="cls-2" d="M35.31,40.8h-13.78c-.56-.01-1.01-.48-1-1.04,0-.17,.05-.33,.13-.48l6.79-10.79c.18-.29,.5-.47,.84-.47h13.71c.56,0,1.01,.45,1.01,1.01,0,.18-.05,.35-.13,.5l-6.73,10.8c-.18,.29-.5,.47-.84,.47Zm-12-2h11.45l5.45-8.78h-11.36l-5.54,8.78Z"/>
        <path id="Path_7368" data-name="Path 7368" class="cls-2" d="M34.47,40.35l-7.18-11.04v-2.8h2v2.21l6.86,10.53-1.68,1.1Z"/>
        <path id="Path_7369" data-name="Path 7369" class="cls-2" d="M31.15,25.81h-5c-.55,0-1-.45-1-1s.45-1,1-1h5c.55,0,1,.45,1,1s-.45,1-1,1Z"/>
        <path id="Path_7370" data-name="Path 7370" class="cls-2" d="M49.31,41.07c-.34,0-.66-.17-.84-.46l-7.38-11.72,1.64-5.26h3.93c.55,0,1,.45,1,1s-.45,1-1,1h-2.46l-.92,3,6.87,10.91c.3,.46,.16,1.08-.3,1.37-.16,.1-.35,.16-.54,.16Z"/>
        <path id="Path_7371" data-name="Path 7371" class="cls-2" d="M21.53,47.84c-4.42,0-8-3.58-8-8s3.58-8,8-8,8,3.58,8,8-3.58,8-8,8Zm0-14.08c-3.31,0-6,2.69-6,6s2.69,6,6,6,6-2.69,6-6-2.69-6-6-6Z"/>
        <path id="Path_7372" data-name="Path 7372" class="cls-2" d="M49.31,47.84c-4.42,0-8-3.58-8-8s3.58-8,8-8,8,3.58,8,8-3.58,8-8,8Zm0-14.08c-3.31,0-6,2.69-6,6s2.69,6,6,6,6-2.69,6-6-2.69-6-6-6Z"/>
      </g>
    </g>
  </g>
</svg>