<?xml version="1.0" encoding="UTF-8"?>
<svg id="Layer_2" data-name="Layer 2" xmlns="http://www.w3.org/2000/svg" viewBox="0 0 72 66">
  <defs>
    <style>
      .cls-1 {
        fill: #2c4a66;
      }

      .cls-2 {
        fill: #fff;
        opacity: 0;
      }
    </style>
  </defs>
  <g id="Layer_1-2" data-name="Layer 1">
    <g>
      <rect class="cls-2" width="72" height="66"/>
      <g>
        <path id="Path_7322" data-name="Path 7322" class="cls-1" d="M35.79,59.59l-.41-.18c-.87-.39-21.26-9.66-21.26-21.58V11.84h1c.15,0,15.41,.4,19.93-4.13l.71-.71,.71,.71c4.53,4.53,19.78,4.13,19.93,4.13h1v25.94c0,11.92-20.39,21.19-21.26,21.58l-.35,.23ZM16.12,13.88v23.9c0,9.78,16.81,18.2,19.67,19.56,2.86-1.36,19.72-9.75,19.72-19.56V13.88c-3.48,0-14.76-.26-19.67-4.1-4.96,3.81-16.24,4.12-19.72,4.1Z"/>
        <path id="Path_7323" data-name="Path 7323" class="cls-1" d="M35.79,45.26c-7.26,0-13.15-5.89-13.15-13.15s5.89-13.15,13.15-13.15,13.15,5.89,13.15,13.15-5.89,13.15-13.15,13.15h0Zm0-24.3c-6.16,0-11.15,4.99-11.15,11.15s4.99,11.15,11.15,11.15,11.15-4.99,11.15-11.15h0c0-6.16-4.99-11.15-11.15-11.15Z"/>
        <path id="Path_7324" data-name="Path 7324" class="cls-1" d="M40.65,36.75c-.22,0-.43-.07-.6-.2l-5.26-3.96v-9.16c0-.55,.45-1,1-1s1,.45,1,1v8.16l4.46,3.34c.44,.34,.52,.98,.18,1.43-.19,.24-.47,.39-.78,.39Z"/>
      </g>
    </g>
  </g>
</svg>