<?xml version="1.0" encoding="UTF-8"?>
<svg id="Layer_2" data-name="Layer 2" xmlns="http://www.w3.org/2000/svg" viewBox="0 0 72 66">
  <defs>
    <style>
      .cls-1 {
        fill: #2c4a66;
      }

      .cls-2 {
        fill: #fff;
        opacity: 0;
      }
    </style>
  </defs>
  <g id="Layer_1-2" data-name="Layer 1">
    <g>
      <rect class="cls-2" width="72" height="66"/>
      <g>
        <path id="Path_7380" data-name="Path 7380" class="cls-1" d="M30.7,41.97c-.65,0-1.18-.53-1.18-1.18,0-.12,.02-.24,.05-.35l3.51-11.04h-5.4c-.65,0-1.18-.53-1.18-1.18,0-.3,.11-.59,.32-.8l14.9-16.01c.44-.48,1.19-.51,1.66-.06,.33,.31,.46,.79,.32,1.22l-3.51,11.04h5.4c.65,0,1.18,.53,1.18,1.18,0,.3-.11,.59-.32,.81l-14.89,16.01c-.22,.24-.53,.38-.86,.38Zm-1.13-14.57h4.64c.65,0,1.18,.52,1.18,1.17,0,.12-.02,.24-.05,.35l-2.74,8.62,11.12-11.95h-4.64c-.65,0-1.18-.53-1.18-1.18,0-.12,.02-.24,.05-.35l2.74-8.62-11.12,11.95Z"/>
        <path id="Path_7382" data-name="Path 7382" class="cls-1" d="M12.7,45.78c-.42,0-.79-.26-.94-.65l-1.12-3-2.9-7.96c-.72-2.86-.49-5.88,.65-8.6L16.3,6.81l.97,.53c2.77,1.5,3.95,4.87,2.72,7.77l-4.88,11.54c-.22,.51-.8,.75-1.31,.53-.51-.22-.75-.8-.53-1.31l4.88-11.53c.67-1.57,.3-3.38-.92-4.56l-7,16.58c-.97,2.3-1.16,4.86-.56,7.28l3.97,10.8c.19,.52-.07,1.09-.59,1.29-.11,.04-.23,.06-.35,.06h0Z"/>
        <path id="Path_7383" data-name="Path 7383" class="cls-1" d="M23.74,45.78c-.55,0-1-.45-1-1v-3.31l-3.25-5.54v-9.08c.03-1.2-.93-2.19-2.13-2.22-1.2-.03-2.19,.93-2.22,2.13,0,.03,0,.06,0,.09v8.95c0,.55-.45,1-1,1s-1-.45-1-1v-8.95c-.04-2.3,1.8-4.2,4.11-4.24,2.3-.04,4.2,1.8,4.24,4.11,0,.04,0,.09,0,.13v8.53l3.04,5.19c.13,.23,.21,.49,.21,.76v3.45c0,.55-.44,1-.99,1Z"/>
        <path id="Path_7385" data-name="Path 7385" class="cls-1" d="M60.16,45.78c-.55,0-1-.45-1-1,0-.12,.02-.24,.06-.35l1.12-3,2.85-7.8c.6-2.42,.4-4.98-.57-7.28l-7-16.58c-1.22,1.18-1.59,3-.92,4.56l4.88,11.53c.22,.51-.02,1.1-.53,1.31-.51,.22-1.1-.02-1.31-.53h0l-4.88-11.53c-1.23-2.9-.06-6.27,2.72-7.77l.97-.53,7.92,18.76c1.14,2.72,1.37,5.74,.65,8.6l-.03,.1-3.99,10.86c-.15,.39-.52,.65-.94,.65Z"/>
        <path id="Path_7386" data-name="Path 7386" class="cls-1" d="M49.11,45.78c-.55,0-1-.45-1-1v-3.45c0-.26,.07-.52,.2-.74l3.05-5.21v-8.53c0-2.3,1.87-4.17,4.17-4.17s4.17,1.87,4.17,4.17h0v8.95c0,.55-.45,1-1,1s-1-.45-1-1v-8.95c0-1.2-.97-2.17-2.17-2.17s-2.17,.97-2.17,2.17v9.08l-3.25,5.54v3.31c0,.55-.45,1-1,1,0,0,0,0,0,0Z"/>
      </g>
    </g>
  </g>
</svg>