<?xml version="1.0" encoding="UTF-8"?>
<svg id="Layer_2" data-name="Layer 2" xmlns="http://www.w3.org/2000/svg" viewBox="0 0 72 66">
  <defs>
    <style>
      .cls-1 {
        fill: #2c4a66;
      }

      .cls-2 {
        fill: #fff;
        opacity: 0;
      }
    </style>
  </defs>
  <g id="Layer_1-2" data-name="Layer 1">
    <g>
      <rect class="cls-2" width="72" height="66"/>
      <g>
        <path id="Path_7316" data-name="Path 7316" class="cls-1" d="M62.16,48.68H10.28c-.55,0-1-.45-1-1s.45-1,1-1H62.16c.55,0,1,.45,1,1s-.45,1-1,1Z"/>
        <path id="Path_7317" data-name="Path 7317" class="cls-1" d="M35.8,47.39c-14.62-.02-26.47-11.87-26.49-26.49,0-.55,.45-1,1-1s1,.45,1,1c0,13.53,10.98,24.5,24.51,24.49,13.52,0,24.49-10.97,24.49-24.49,0-.55,.45-1,1-1s1,.45,1,1c-.01,14.63-11.88,26.49-26.51,26.49Z"/>
        <path id="Path_7318" data-name="Path 7318" class="cls-1" d="M35.8,32.79c-6.56,0-11.88-5.33-11.89-11.89,0-.55,.45-1,1-1s1,.45,1,1c0,5.46,4.42,9.89,9.89,9.89,5.46,0,9.89-4.42,9.89-9.89h0c0-.56,.45-1.01,1-1.01s1,.45,1,1c0,6.56-5.33,11.88-11.89,11.89Z"/>
        <path id="Path_7319" data-name="Path 7319" class="cls-1" d="M61.71,22.5l-3-.19v-1.41h3c.04,.53,.04,1.07,0,1.6Z"/>
        <path id="Path_7320" data-name="Path 7320" class="cls-1" d="M32.81,46.7c-1.01-.12-2.01-.29-3-.52l.74-2.92c.87,.2,1.75,.36,2.63,.46l-.37,2.98Zm6,0l-.35-3c.88-.11,1.76-.26,2.62-.46l.69,2.92c-.97,.24-1.96,.42-2.95,.54h-.01Zm-14.63-2.57c-.91-.46-1.79-.97-2.63-1.54l1.64-2.51c.76,.5,1.55,.96,2.36,1.37l-1.37,2.68Zm23.26,0l-1.35-2.68c.79-.4,1.56-.85,2.31-1.33l1.64,2.47c-.84,.56-1.7,1.07-2.6,1.53h0Zm-30.48-5.35c-.7-.73-1.35-1.5-1.95-2.3l2.4-1.8c.54,.7,1.11,1.37,1.72,2l-2.17,2.1Zm37.69,0l-2.17-2.08c.61-.63,1.18-1.3,1.71-2l2.4,1.8c-.6,.79-1.25,1.55-1.94,2.26v.02ZM11.99,31.28c-.39-.92-.72-1.87-1-2.83l2.83-.86c.25,.85,.56,1.69,.92,2.5l-2.75,1.19Zm47.63,0l-2.75-1.2c.35-.81,.66-1.65,.91-2.5l2.88,.87c-.29,.95-.64,1.89-1.04,2.8v.03Z"/>
        <path id="Path_7321" data-name="Path 7321" class="cls-1" d="M9.88,22.49v-1.59h3v1.41l-3,.18Z"/>
      </g>
    </g>
  </g>
</svg>