<?xml version="1.0" encoding="UTF-8"?>
<svg id="Layer_2" data-name="Layer 2" xmlns="http://www.w3.org/2000/svg" viewBox="0 0 72 66">
  <defs>
    <style>
      .cls-1 {
        fill: #2c4a66;
      }

      .cls-2 {
        fill: #fff;
        opacity: 0;
      }
    </style>
  </defs>
  <g id="Layer_1-2" data-name="Layer 1">
    <g>
      <rect class="cls-2" width="72" height="66"/>
      <g>
        <rect id="Rectangle_4191" data-name="Rectangle 4191" class="cls-1" x="5.96" y="47.04" width="60" height="2"/>
        <path id="Path_7336" data-name="Path 7336" class="cls-1" d="M54.35,43.95H24.45v-5.83h29.9v5.83Zm-27.9-2h25.9v-1.83H26.45v1.83Z"/>
        <path id="Path_7337" data-name="Path 7337" class="cls-1" d="M52.24,35.88H26.56v-7.27h25.68v7.27Zm-23.68-2h21.68v-3.27H28.56v3.27Z"/>
        <rect id="Rectangle_4192" data-name="Rectangle 4192" class="cls-1" x="26.65" y="42.95" width="2" height="4.91"/>
        <rect id="Rectangle_4193" data-name="Rectangle 4193" class="cls-1" x="50.16" y="42.95" width="2" height="4.91"/>
        <path id="Path_7338" data-name="Path 7338" class="cls-1" d="M31.33,39.95c-.55,0-1-.45-1-1v-6.18c0-.55,.45-1,1-1s1,.45,1,1v6.18c0,.55-.45,1-1,1Z"/>
        <path id="Path_7339" data-name="Path 7339" class="cls-1" d="M47.47,39.95c-.55,0-1-.45-1-1v-6.18c0-.55,.45-1,1-1s1,.45,1,1v6.18c0,.55-.45,1-1,1Z"/>
        <path id="Path_7340" data-name="Path 7340" class="cls-1" d="M25.26,8.48H10.79c-.55,.02-1.01-.41-1.03-.95-.01-.38,.19-.74,.54-.92l5.26-2.94c.15-.08,.32-.12,.49-.12h3.95c.17,0,.33,.04,.48,.12l5.27,2.94c.48,.27,.65,.88,.38,1.36-.18,.31-.51,.51-.87,.51Zm-10.59-2h6.79l-1.68-.93h-3.47l-1.64,.93Z"/>
        <rect id="Rectangle_4194" data-name="Rectangle 4194" class="cls-1" x="17.02" y="13.21" width="2" height="34.91"/>
        <path id="Path_7341" data-name="Path 7341" class="cls-1" d="M63.81,26.98h-4.53v-8.14h-7.21v3.18h-5.94V12.79h-6.86v6.49h-6.48v-3.51h-4.49v9.39h-4.82c-.55,0-1-.45-1-1s.45-1,1-1h2.82V13.77h8.49v3.51h2.48v-6.49h10.86v9.23h1.94v-3.18h11.21v8.14h2.53c.55,0,1,.45,1,1,0,.55-.45,1-1,1,0,0,0,0,0,0Z"/>
        <path id="Path_7342" data-name="Path 7342" class="cls-1" d="M18.02,14.41c-2.55,0-4.61-2.07-4.61-4.62,0-.86,.23-1.7,.69-2.42,.26-.49,.86-.67,1.35-.41,.49,.26,.67,.86,.41,1.35-.02,.04-.05,.08-.08,.12-.25,.41-.38,.88-.38,1.36-.09,1.44,1.01,2.69,2.45,2.78,1.44,.09,2.69-1.01,2.78-2.45,0-.11,0-.22,0-.32,0-.48-.13-.95-.39-1.36-.29-.47-.15-1.09,.32-1.38,.47-.29,1.09-.15,1.38,.32,.46,.72,.71,1.56,.72,2.42,0,2.55-2.07,4.62-4.62,4.62-.01,0-.02,0-.03,0Z"/>
      </g>
    </g>
  </g>
</svg>