<?xml version="1.0" encoding="UTF-8"?>
<svg id="Layer_2" data-name="Layer 2" xmlns="http://www.w3.org/2000/svg" viewBox="0 0 72 66">
  <defs>
    <style>
      .cls-1 {
        fill: #2c4a66;
      }

      .cls-2 {
        fill: #fff;
        opacity: 0;
      }
    </style>
  </defs>
  <g id="Layer_1-2" data-name="Layer 1">
    <g>
      <rect class="cls-2" width="72" height="66"/>
      <g>
        <path id="Path_7325" data-name="Path 7325" class="cls-1" d="M70.32,48.79H1.46c-.55,0-1-.45-1-1s.45-1,1-1H70.32c.55,0,1,.45,1,1s-.45,1-1,1Z"/>
        <path id="Path_7326" data-name="Path 7326" class="cls-1" d="M21.12,47.56c-3.87,0-7-3.13-7-7s3.13-7,7-7,7,3.13,7,7-3.13,7-7,7Zm-4.96-6.99c.02,2.76,2.27,4.98,5.04,4.96s4.98-2.27,4.96-5.04c-.02-2.76-2.27-4.98-5.04-4.96-2.73,.02-4.94,2.23-4.96,4.96v.07Z"/>
        <path id="Path_7327" data-name="Path 7327" class="cls-1" d="M51.35,39.62h-16c-1.33,0-2.41-1.08-2.41-2.41h0v-1.08c0-1.33,1.08-2.41,2.41-2.41h16c1.33,0,2.41,1.08,2.41,2.41h0v1.12c-.02,1.32-1.09,2.37-2.41,2.37Zm-16-3.94c-.23,0-.41,.18-.41,.41h0v1.12c0,.23,.18,.41,.41,.41h16c.23,0,.41-.18,.41-.41h0v-1.08c0-.23-.18-.41-.41-.41h0l-16-.04Z"/>
        <path id="Path_7328" data-name="Path 7328" class="cls-1" d="M50.59,47.56c-5.16-.01-9.61-3.64-10.65-8.7-.1-.55,.27-1.08,.82-1.18,.54-.1,1.06,.25,1.18,.78,.98,4.8,5.66,7.9,10.46,6.92,4.8-.98,7.9-5.66,6.92-10.46s-5.66-7.9-10.46-6.92c-3.49,.71-6.21,3.43-6.92,6.92-.12,.55-.67,.9-1.22,.78-.53-.12-.88-.64-.78-1.18,1.18-5.89,6.9-9.71,12.79-8.53,5.89,1.18,9.71,6.9,8.53,12.79-1.02,5.09-5.48,8.74-10.67,8.74v.04Z"/>
        <path id="Path_7329" data-name="Path 7329" class="cls-1" d="M14.83,42.06h-.51c-.37-.01-.74-.07-1.09-.18-1.78-.66-2.95-2.37-2.92-4.26v-7.53c0-2.47,2-4.47,4.47-4.47,.02,0,.03,0,.05,0h8c.55,0,1,.45,1,1s-.45,1-1,1H14.83c-1.36,0-2.46,1.11-2.47,2.47v7.53c0,1.03,.64,1.96,1.61,2.32l.6,.06,.48,.06c.55,.05,.96,.53,.92,1.08s-.53,.96-1.08,.92h-.05Z"/>
        <path id="Path_7330" data-name="Path 7330" class="cls-1" d="M34.32,42.11h-7.06c-.55,0-1-.45-1-1s.45-1,1-1h7.06c1.08,0,2.04-.7,2.36-1.74,.16-.53,.72-.83,1.25-.67s.83,.72,.67,1.25c-.57,1.88-2.31,3.16-4.28,3.15Z"/>
        <path id="Path_7331" data-name="Path 7331" class="cls-1" d="M37.83,35.72c-.55,0-1-.45-1-1v-4.7c0-.55,.45-1,1-1s1,.45,1,1v4.7c0,.55-.45,1-1,1Z"/>
        <path id="Path_7332" data-name="Path 7332" class="cls-1" d="M38.48,31.02h-9.37c-6.46,0-7.43-3.59-7.43-5.73V13.13c0-.55,.45-1,1-1s1,.45,1,1v12.16c0,.92,0,3.73,5.43,3.73h7.86l4.56-16.16c.11-.54,.64-.89,1.18-.78s.89,.64,.78,1.18c0,.05-.02,.1-.04,.14l-4.97,17.62Z"/>
        <path id="Path_7333" data-name="Path 7333" class="cls-1" d="M45.01,13.79H22.68c-.55,0-1-.45-1-1s.45-1,1-1h22.33c.55,0,1,.45,1,1s-.45,1-1,1Z"/>
        <path id="Path_7334" data-name="Path 7334" class="cls-1" d="M23.55,27.48H15.55v-2.26c0-2.3,1.87-4.16,4.17-4.16h3.83v6.42Zm-6-2h4v-2.42h-1.83c-1.19,0-2.16,.96-2.17,2.15,0,0,0,0,0,.01v.26Z"/>
        <path id="Path_7335" data-name="Path 7335" class="cls-1" d="M27.45,30.62c-.55,0-1-.45-1-1V15.62c0-.55,.45-1,1-1s1,.45,1,1v14c0,.55-.45,1-1,1Z"/>
      </g>
    </g>
  </g>
</svg>