<?xml version="1.0" encoding="UTF-8"?>
<svg id="Layer_2" data-name="Layer 2" xmlns="http://www.w3.org/2000/svg" viewBox="0 0 72.36 66">
  <defs>
    <style>
      .cls-1 {
        fill: #2c4a66;
      }

      .cls-2 {
        fill: #fff;
        opacity: 0;
      }
    </style>
  </defs>
  <g id="Layer_1-2" data-name="Layer 1">
    <g>
      <rect class="cls-2" width="72" height="66"/>
      <g>
        <path id="Path_7355" data-name="Path 7355" class="cls-1" d="M71.36,49.22H1.36c-.55,0-1-.45-1-1s.45-1,1-1H71.36c.55,0,1,.45,1,1s-.45,1-1,1Z"/>
        <path id="Path_7356" data-name="Path 7356" class="cls-1" d="M50.94,49.21c-.55,0-1-.45-1-1V13.37h9.51v15.2h1.82l.09-5.9h8.39c.55,0,1,.45,1,1s-.45,1-1,1h-6.42l-.12,5.9h-5.76V15.37h-5.51V48.21c0,.55-.45,1-1,1Z"/>
        <path id="Path_7357" data-name="Path 7357" class="cls-1" d="M20.21,49.21c-.55,0-1-.45-1-1V24.72h-3.42v5.85h-5.11v-9.37H3.68c-.55,0-1-.45-1-1s.45-1,1-1H12.68v9.37h1.11v-5.85h7.42v25.49c0,.55-.45,1-1,1Z"/>
        <path id="Path_7358" data-name="Path 7358" class="cls-1" d="M41.52,43.67c-3.39,0-6.14-2.74-6.15-6.13s2.74-6.14,6.13-6.15,6.14,2.74,6.15,6.13c0,0,0,0,0,0,0,3.39-2.74,6.13-6.13,6.14Zm0-10.27c-2.29,0-4.14,1.84-4.15,4.13s1.84,4.14,4.13,4.15,4.14-1.84,4.15-4.13c0,0,0-.01,0-.02,0-2.28-1.85-4.12-4.13-4.13Z"/>
        <path id="Path_7359" data-name="Path 7359" class="cls-1" d="M29.48,43.67c-3.44,0-6.14-3.74-6.14-8.51s2.7-8.51,6.14-8.51,6.13,3.73,6.13,8.51-2.7,8.51-6.13,8.51Zm0-15c-2.24,0-4.14,3-4.14,6.51s1.9,6.51,4.14,6.51,4.13-3,4.13-6.51-1.9-6.53-4.13-6.53v.02Z"/>
        <path id="Path_7360" data-name="Path 7360" class="cls-1" d="M41.38,48.89c-.55,0-1-.45-1-1v-8l-1.41-1.16c-.46-.31-.58-.93-.28-1.39,.31-.46,.93-.58,1.39-.28,.05,.03,.09,.07,.13,.11l2.14,1.76v9c-.02,.53-.44,.94-.97,.96Z"/>
        <path id="Path_7361" data-name="Path 7361" class="cls-1" d="M29.53,48.5c-.55,0-1-.45-1-1v-9.45l-1.45-1c-.42-.35-.48-.98-.13-1.41,.31-.37,.84-.47,1.26-.23l2.33,1.58v10.51c0,.55-.45,1-1,1,0,0,0,0-.01,0Z"/>
        <path id="Path_7362" data-name="Path 7362" class="cls-1" d="M29.53,39.98c-.55,0-1-.44-1.01-.99,0-.27,.11-.53,.3-.72l2.1-2.1c.39-.39,1.02-.39,1.42,0s.39,1.02,0,1.42h0l-2.13,2.11c-.18,.18-.42,.28-.68,.29Z"/>
        <path id="Path_7363" data-name="Path 7363" class="cls-1" d="M41.38,40.3c-.55,0-1-.44-1.01-.99,0-.27,.11-.53,.3-.72l2.22-2.22c.39-.39,1.03-.39,1.42,0s.39,1.03,0,1.42l-2.21,2.21c-.19,.19-.44,.3-.71,.3Z"/>
        <path id="Path_7364" data-name="Path 7364" class="cls-1" d="M29.53,38.8c-.55,0-1-.45-1-1v-4.2c0-.55,.45-1,1-1s1,.45,1,1v4.2c0,.55-.45,1-1,1Z"/>
        <path id="Path_7365" data-name="Path 7365" class="cls-1" d="M41.38,40.8c-.55,0-1-.45-1-1v-4.16c0-.55,.45-1,1-1s1,.45,1,1v4.16c0,.55-.45,1-1,1Z"/>
      </g>
    </g>
  </g>
</svg>