<?xml version="1.0" encoding="UTF-8"?>
<svg id="Layer_2" data-name="Layer 2" xmlns="http://www.w3.org/2000/svg" viewBox="0 0 72 66">
  <defs>
    <style>
      .cls-1 {
        fill: #2c4a66;
      }

      .cls-2 {
        fill: #fff;
        opacity: 0;
      }
    </style>
  </defs>
  <g id="Layer_1-2" data-name="Layer 1">
    <g>
      <rect class="cls-2" width="72" height="66"/>
      <g>
        <path id="Path_7348" data-name="Path 7348" class="cls-1" d="M64.14,48.63h-24.72c-.55,0-1-.45-1-1s.45-1,1-1h24.72c.55,0,1,.45,1,1s-.45,1-1,1Z"/>
        <path id="Path_7349" data-name="Path 7349" class="cls-1" d="M33.18,48.63H8.45c-.55,0-1-.45-1-1s.45-1,1-1h24.73c.55,0,1,.45,1,1s-.45,1-1,1Z"/>
        <path id="Path_7350" data-name="Path 7350" class="cls-1" d="M36.3,40.45c-5.89-.01-10.66-4.78-10.68-10.67,0-5.61,9.48-18.41,9.88-18.95l.81-1.08,.8,1.08c.4,.54,9.88,13.34,9.88,18.95-.01,5.9-4.79,10.67-10.69,10.67Zm0-27.34c-3.01,4.22-8.68,12.92-8.68,16.67,.16,4.8,4.18,8.55,8.98,8.39,4.57-.15,8.24-3.82,8.39-8.39-.01-3.74-5.69-12.45-8.69-16.66h0Z"/>
        <path id="Path_7351" data-name="Path 7351" class="cls-1" d="M39.98,34.95c-.55,0-1-.44-1-1,0-.3,.14-.59,.37-.78,1.37-1.09,2.17-2.73,2.18-4.48,0-.55,.45-1,1-1s1,.45,1,1c-.03,2.34-1.1,4.54-2.93,6-.17,.16-.39,.25-.62,.26Z"/>
        <path id="Path_7352" data-name="Path 7352" class="cls-1" d="M31.62,27.39c-.57,.02-1.05-.42-1.07-.99,0-.14,.02-.28,.07-.42,1.28-2.72,2.81-5.31,4.57-7.75,.31-.46,.93-.58,1.39-.28,.46,.31,.58,.93,.28,1.39,0,0,0,.01-.01,.02-1.69,2.34-3.16,4.83-4.39,7.44-.15,.33-.47,.56-.83,.59Z"/>
        <path id="Path_7353" data-name="Path 7353" class="cls-1" d="M36.3,62.84l-7.68-7.7c-.39-.39-.39-1.03,0-1.42s1.03-.39,1.42,0l6.29,6.29,6.29-6.29c.39-.39,1.03-.39,1.42,0s.39,1.03,0,1.42l-7.74,7.7Z"/>
        <path id="Path_7354" data-name="Path 7354" class="cls-1" d="M36.3,62.45c-.55,0-1-.45-1-1V29.29c0-.55,.45-1,1-1s1,.45,1,1V61.45c0,.55-.45,1-1,1Z"/>
      </g>
    </g>
  </g>
</svg>